<?xml version="1.0" encoding="utf-8"?>
<!-- Svg Vector Icons : http://www.onlinewebfonts.com/icon -->
<!DOCTYPE svg PUBLIC "-//W3C//DTD SVG 1.1//EN" "http://www.w3.org/Graphics/SVG/1.1/DTD/svg11.dtd">
<svg version="1.1" xmlns="http://www.w3.org/2000/svg" xmlns:xlink="http://www.w3.org/1999/xlink" x="0px" y="0px" viewBox="0 0 1000 1000" enable-background="new 0 0 1000 1000" xml:space="preserve">
<metadata> Svg Vector Icons : http://www.onlinewebfonts.com/icon </metadata>
<g fill="#61DAFB"><path d="M528.8,798.3c-47.7,0-87.7-33.3-98-78h-73c-12.5,0-22.6-10.2-22.6-22.6V224.3c0-12.5,10.1-22.6,22.6-22.6h609.6c12.5,0,22.6,10.1,22.6,22.6v473.4c0,12.4-10.1,22.6-22.6,22.6h-70.3c-12.5,0-22.6-10.2-22.6-22.6c0-30.5-24.9-55.5-55.5-55.5c-30.5,0-55.4,24.9-55.4,55.5c0,12.4-10.1,22.6-22.6,22.6H626.7C616.4,764.9,576.4,798.3,528.8,798.3 M380.4,675.1h70.4c12.5,0,22.6,10.2,22.6,22.6c0,30.6,24.9,55.5,55.4,55.5c30.5,0,55.5-24.9,55.5-55.5c0-12.4,10.1-22.6,22.6-22.6h114.5c10.3-44.6,50.3-78,98-78c47.7,0,87.7,33.4,98,78h27.7V246.9H380.4V675.1z"/><path d="M528.8,798.3c-55.5,0-100.6-45.1-100.6-100.6c0-55.5,45.1-100.6,100.6-100.6c55.5,0,100.6,45.1,100.6,100.6C629.3,753.2,584.2,798.3,528.8,798.3 M528.8,642.3c-30.5,0-55.5,24.9-55.5,55.5s24.9,55.5,55.5,55.5c30.5,0,55.5-24.9,55.5-55.5S559.3,642.3,528.8,642.3"/><path d="M195.2,798.3c-47.7,0-87.7-33.3-98-78H32.6c-12.5,0-22.6-10.2-22.6-22.6V470.2c0-4.5,1.4-8.9,3.9-12.7L138,275.1c4.3-6.1,11.2-9.8,18.7-9.8h201.2c12.5,0,22.6,10.1,22.6,22.6v409.8c0,12.4-10.1,22.6-22.6,22.6h-64.6C282.9,764.9,242.9,798.3,195.2,798.3 M55.1,675.1h62c12.5,0,22.6,10.2,22.6,22.6c0,30.6,24.9,55.5,55.5,55.5c30.5,0,55.5-24.9,55.5-55.5c0-12.4,10.1-22.6,22.6-22.6h62V310.4H168.6L55.1,477.2V675.1z"/><path d="M819.2,798.3c-55.5,0-100.6-45.1-100.6-100.6c0-55.5,45.1-100.6,100.6-100.6c55.5,0,100.6,45.1,100.6,100.6C919.8,753.2,874.7,798.3,819.2,798.3 M819.2,642.3c-30.5,0-55.5,24.9-55.5,55.5s24.9,55.5,55.5,55.5c30.6,0,55.5-24.9,55.5-55.5S849.8,642.3,819.2,642.3"/><path d="M195.2,798.3c-55.5,0-100.6-45.1-100.6-100.6c0-55.5,45.1-100.6,100.6-100.6c55.5,0,100.6,45.1,100.6,100.6C295.8,753.2,250.6,798.3,195.2,798.3 M195.2,642.3c-30.5,0-55.5,24.9-55.5,55.5s24.9,55.5,55.5,55.5c30.5,0,55.5-24.9,55.5-55.5S225.7,642.3,195.2,642.3"/><path d="M273.2,500.9H32.6c-12.5,0-22.6-10.1-22.6-22.6c0-12.5,10.1-22.6,22.6-22.6h218.1V296.5c0-12.5,10.1-22.6,22.6-22.6c12.5,0,22.6,10.1,22.6,22.6v181.8C295.8,490.8,285.6,500.9,273.2,500.9"/></g>
</svg>